<svg xmlns="http://www.w3.org/2000/svg" viewBox="0 0 461.53 298.97"><defs><style>.cls-1{fill:#a6c320;}</style></defs><g id="Layer_2" data-name="Layer 2"><g id="Layer_1-2" data-name="Layer 1"><path class="cls-1" d="M10.25,144.43A30.85,30.85,0,0,0,21,149.56a48.89,48.89,0,0,0,12.6,1.6,52.53,52.53,0,0,0,11-1.11,31,31,0,0,0,9.51-3.7,25,25,0,0,0,7.35-6.74A28.79,28.79,0,0,0,66,129.55h44.59q12.22,0,18.1-5.62t5.87-17.73v-4.57a32.49,32.49,0,0,0-2-11.55,22.87,22.87,0,0,0-6.05-9,28,28,0,0,0-10.38-5.74,48.25,48.25,0,0,0-14.82-2,66.7,66.7,0,0,0-15.69,2A83.75,83.75,0,0,0,67.2,82.6V74.33H50.28v45.58q0,9-4,13.09c-2.63,2.72-6.59,4.08-11.85,4.08a26.63,26.63,0,0,1-6.18-.74,15,15,0,0,1-5.56-2.59,13,13,0,0,1-3.95-5.07,18.77,18.77,0,0,1-1.49-7.91,38,38,0,0,1,.25-4.32,41.35,41.35,0,0,1,.74-4.26c.33-1.44.76-3,1.3-4.63s1.21-3.5,2-5.56L6.67,96.56a57,57,0,0,0-5,13.1A50.09,50.09,0,0,0,0,121.27a31.63,31.63,0,0,0,2.78,14A25,25,0,0,0,10.25,144.43Zm57-47.37A77.87,77.87,0,0,1,82.46,90a48.55,48.55,0,0,1,15.38-2.53c6.25,0,11.12,1.44,14.57,4.32s5.19,6.92,5.19,12.11a21.36,21.36,0,0,1-.49,4.76,9.59,9.59,0,0,1-1.67,3.7,7.89,7.89,0,0,1-3.4,2.47,14.44,14.44,0,0,1-5.56.93H67.2Z"/><path class="cls-1" d="M98.33,62.34a8.33,8.33,0,0,0,6.24-2.47A8.77,8.77,0,0,0,107,53.45a8.64,8.64,0,0,0-2.41-6.3,8.33,8.33,0,0,0-6.24-2.47A8.73,8.73,0,0,0,92,47.15a8.42,8.42,0,0,0-2.53,6.3,8.72,8.72,0,0,0,2.47,6.36A8.54,8.54,0,0,0,98.33,62.34Z"/><path class="cls-1" d="M183,135.17q-3.76,2.52-11.67,2.53a43.89,43.89,0,0,1-6.92-.5q-3.09-.49-5.93-1.11L156,149.19a76.33,76.33,0,0,0,7.84,1.42,61.89,61.89,0,0,0,8,.55,59,59,0,0,0,13.22-1.36,26.45,26.45,0,0,0,10.13-4.5,20.57,20.57,0,0,0,6.48-8.28A30.64,30.64,0,0,0,204,124.48V100.27a29,29,0,0,0-2.22-11.74,23.7,23.7,0,0,0-6.06-8.4,26.6,26.6,0,0,0-8.77-5.06,34.19,34.19,0,0,0-23.65.8A26.43,26.43,0,0,0,154,82.6a27.79,27.79,0,0,0-5.43,9.64,35.5,35.5,0,0,0-1.8,11.24,29.5,29.5,0,0,0,2.1,11.61,22,22,0,0,0,5.81,8.16,23.76,23.76,0,0,0,8.89,4.75,39.72,39.72,0,0,0,11.37,1.55,42.6,42.6,0,0,0,6.42-.44,25.74,25.74,0,0,0,5.44-1.42A8.44,8.44,0,0,1,183,135.17Zm-.19-19.89a30.82,30.82,0,0,1-5.55.43q-6.3,0-9.7-3.4t-3.4-10.44a18.65,18.65,0,0,1,1.05-6.6,13,13,0,0,1,2.72-4.51,10.11,10.11,0,0,1,3.89-2.54,13.16,13.16,0,0,1,4.45-.8,9.89,9.89,0,0,1,4.94,1.18,9.06,9.06,0,0,1,3.33,3.14,14.15,14.15,0,0,1,1.8,4.45,24.24,24.24,0,0,1,.55,5.31v12.73A26.71,26.71,0,0,1,182.82,115.28Z"/><path class="cls-1" d="M225.32,74.33v51.14q0,6.06-2,8.77T216.55,137a19.13,19.13,0,0,1-2.72-.19c-.91-.12-1.85-.27-2.84-.43l-2.1,13.22a37.44,37.44,0,0,0,5.06,1.11,43.19,43.19,0,0,0,6.8.49,34.8,34.8,0,0,0,7.72-.86,16.37,16.37,0,0,0,11.67-9.88,29.78,29.78,0,0,0,2.1-10.87h22a50.09,50.09,0,0,0,11.61-1.36A52.22,52.22,0,0,0,286,124.73a25.57,25.57,0,0,0,7.72,3.46A41.7,41.7,0,0,0,305,129.55h21.37a25,25,0,0,0,9.14-1.36,16.66,16.66,0,0,0,6.42-5.19,31.66,31.66,0,0,0,9.88,5.62A34,34,0,0,0,361.94,130a32.92,32.92,0,0,0,9.76-1.48,24.85,24.85,0,0,0,8.77-4.82,22.55,22.55,0,0,0,6.24-8.89,34.39,34.39,0,0,0,2.29-13.1,33.55,33.55,0,0,0-1.92-11.49,24.66,24.66,0,0,0-5.56-9,25.27,25.27,0,0,0-9.08-5.8A34.42,34.42,0,0,0,360,73.34a28.18,28.18,0,0,0-11.31,2.22,25,25,0,0,0-8.77,6.3,31,31,0,0,0-5.8,9.76,44,44,0,0,0-2.66,12.48c-.25,1.89-.51,3.52-.8,4.88a13,13,0,0,1-1.24,3.52,6,6,0,0,1-2.22,2.35,7.28,7.28,0,0,1-3.77.86H307.59q-1.72,0-4.38-.12a15.82,15.82,0,0,1-4.14-.62,46.43,46.43,0,0,0,6.42-4.7,35.07,35.07,0,0,0,5.13-5.49A26.06,26.06,0,0,0,314,98.72a17.13,17.13,0,0,0,1.24-6.36A14.94,14.94,0,0,0,313,84a19.29,19.29,0,0,0-6.23-5.93,30.63,30.63,0,0,0-9.27-3.58,52.15,52.15,0,0,0-11.24-1.17,43.21,43.21,0,0,0-7.91.74A65,65,0,0,0,270.65,76a63.7,63.7,0,0,0-6.85,2.6,40.05,40.05,0,0,0-5.25,2.78,21.77,21.77,0,0,0-.8,3c-.29,1.32-.56,2.76-.81,4.33s-.47,3.08-.68,4.57-.35,2.63-.43,3.46c2.31,1.4,4.32,2.71,6,4s3.34,2.49,4.82,3.77,3,2.7,4.57,4.26,3.34,3.38,5.31,5.43a24,24,0,0,1-4.44,1.12,37.8,37.8,0,0,1-6.43.49H242.24V74.33ZM348.17,101a27.85,27.85,0,0,1,2.59-6.86,14.82,14.82,0,0,1,4.08-4.81,9.33,9.33,0,0,1,5.74-1.8,10,10,0,0,1,8.4,4q3.09,4,3.09,11.3a13.88,13.88,0,0,1-3.09,9.39,10.34,10.34,0,0,1-8.27,3.58,16.73,16.73,0,0,1-6.73-1.36,27.12,27.12,0,0,1-7.11-4.94A54.6,54.6,0,0,1,348.17,101Zm-76.4-10.13a12.76,12.76,0,0,1,2.28-1.11,27.73,27.73,0,0,1,3.52-1.11q2-.5,4.2-.87a26.72,26.72,0,0,1,4.45-.37,21.43,21.43,0,0,1,5.5.62,11,11,0,0,1,3.7,1.67,6.53,6.53,0,0,1,2,2.28,5.32,5.32,0,0,1,.62,2.35,9.55,9.55,0,0,1-.87,4,16.31,16.31,0,0,1-2.34,3.71,25.7,25.7,0,0,1-3.34,3.34,29.31,29.31,0,0,1-3.7,2.65,108.7,108.7,0,0,0-6.92-8.65A71.64,71.64,0,0,0,271.77,90.88Z"/><path class="cls-1" d="M81,172.8a17.39,17.39,0,0,0-6.27-4,28,28,0,0,0-9.46-1.54,23,23,0,0,0-9.94,2.18,17.17,17.17,0,0,0-7.5,7h-.21a14,14,0,0,0-6.22-6.86,21.26,21.26,0,0,0-10.26-2.28,20.07,20.07,0,0,0-9.67,2.34A14.92,14.92,0,0,0,15,176.15h-.21v-7.66H0v56.14H15.1V194a24.11,24.11,0,0,1,.9-7.12,13.87,13.87,0,0,1,2.44-4.73A9.24,9.24,0,0,1,22,179.45a10.48,10.48,0,0,1,4.14-.86,10.75,10.75,0,0,1,5,1,7,7,0,0,1,2.92,2.87A12.45,12.45,0,0,1,35.4,187a52.1,52.1,0,0,1,.32,6.06v31.58h15.1v-34a15.05,15.05,0,0,1,1-5.64,10.35,10.35,0,0,1,2.45-3.72,9.22,9.22,0,0,1,3.45-2,12.77,12.77,0,0,1,3.89-.64,10.5,10.5,0,0,1,4.89,1,6.94,6.94,0,0,1,2.92,2.93,13.09,13.09,0,0,1,1.33,4.62,53.44,53.44,0,0,1,.32,6.12v31.36H86.11v-37a26.31,26.31,0,0,0-1.27-8.45A16.53,16.53,0,0,0,81,172.8Z"/><path class="cls-1" d="M147.88,211.87V188.69q.21-10.2-6.22-15.84t-20.25-5.63a52.54,52.54,0,0,0-9.46,1,50,50,0,0,0-8.83,2.33l2.77,10.85a48.23,48.23,0,0,1,7.76-2.13,39.24,39.24,0,0,1,6.7-.64q6.27,0,9.35,2.45a8.29,8.29,0,0,1,3.08,6.91v1.38a105.29,105.29,0,0,0-13.5.64,43.06,43.06,0,0,0-11.48,2.76,17.35,17.35,0,0,0-7.65,5.85,16.44,16.44,0,0,0-2.77,9.89,18.73,18.73,0,0,0,1.76,8.13,14.67,14.67,0,0,0,4.62,5.37,19.14,19.14,0,0,0,6.59,3,30.29,30.29,0,0,0,7.34.9,21,21,0,0,0,9.89-2.23,15.26,15.26,0,0,0,6.37-5.95h.22q.11,1.38.42,3.45a24.68,24.68,0,0,0,.75,3.46h13.39a40,40,0,0,1-.69-6.12Q147.88,215,147.88,211.87Zm-15.1-9.25a15.77,15.77,0,0,1-.69,4.68,12.27,12.27,0,0,1-2.23,4.14,10.38,10.38,0,0,1-3.93,3,13.65,13.65,0,0,1-5.58,1.07,8.67,8.67,0,0,1-6.06-2,7.19,7.19,0,0,1-2.24-5.63,7.12,7.12,0,0,1,1.44-4.57,9.33,9.33,0,0,1,4-2.82,23.94,23.94,0,0,1,6-1.38,65.91,65.91,0,0,1,7.23-.37h2Z"/><path class="cls-1" d="M162.55,168.49v56.14h15.1V197.52a32.24,32.24,0,0,1,1.06-8.88,15.65,15.65,0,0,1,3-5.9,11.06,11.06,0,0,1,4.36-3.19,14.1,14.1,0,0,1,5.21-1c.78,0,1.52,0,2.23.11s1.42.18,2.13.32l.74-11.59c-.64-.07-1.31-.12-2-.16s-1.42-.05-2.13-.05q-10.62,0-14.67,8.61h-.21v-7.34Z"/><path class="cls-1" d="M201,184.17a38.52,38.52,0,0,0,0,24.62,26.14,26.14,0,0,0,5.74,9.25,24.56,24.56,0,0,0,9,5.84,32.82,32.82,0,0,0,11.86,2,32.46,32.46,0,0,0,11.74-2,25,25,0,0,0,9-5.79,26.18,26.18,0,0,0,5.79-9.25,34.82,34.82,0,0,0,2.07-12.38,35.28,35.28,0,0,0-2-12.29,25,25,0,0,0-5.74-9.19,25.4,25.4,0,0,0-9-5.74,35.8,35.8,0,0,0-23.71,0,25.4,25.4,0,0,0-9,5.74A25,25,0,0,0,201,184.17Zm16.53-.79q3.45-4.78,10.05-4.79a12.79,12.79,0,0,1,5.95,1.33,11.86,11.86,0,0,1,4.2,3.62,16.47,16.47,0,0,1,2.5,5.63,29.94,29.94,0,0,1,.85,7.29q0,8.39-3.35,13.18t-10.15,4.89q-6.7-.1-10.1-4.89t-3.41-13.18Q214.11,188.17,217.57,183.38Z"/><path class="cls-1" d="M315.43,175a25.49,25.49,0,0,0-9-5.74,35.8,35.8,0,0,0-23.71,0,25.44,25.44,0,0,0-9,5.74,25.16,25.16,0,0,0-5.74,9.19,38.52,38.52,0,0,0,0,24.62,26.28,26.28,0,0,0,5.74,9.25,24.6,24.6,0,0,0,9,5.84,35.47,35.47,0,0,0,23.6,0,24.84,24.84,0,0,0,9-5.79,26.2,26.2,0,0,0,5.8-9.25,34.82,34.82,0,0,0,2.07-12.38,35.28,35.28,0,0,0-2-12.29A25.16,25.16,0,0,0,315.43,175Zm-10.69,34.66q-3.35,4.79-10.15,4.89-6.69-.1-10.1-4.89t-3.4-13.18q0-8.29,3.45-13.08t10-4.79a12.83,12.83,0,0,1,6,1.33,11.74,11.74,0,0,1,4.19,3.62,16.28,16.28,0,0,1,2.5,5.63,29.45,29.45,0,0,1,.85,7.29Q308.09,204.85,304.74,209.64Z"/><path class="cls-1" d="M389,224.63V146.49H373.9v28.28h-.21a17.53,17.53,0,0,0-7.44-5.8,24.55,24.55,0,0,0-9.25-1.75,22.45,22.45,0,0,0-10.26,2.28,21.87,21.87,0,0,0-7.55,6.22,28.3,28.3,0,0,0-4.62,9.31,40.06,40.06,0,0,0-1.6,11.53A41,41,0,0,0,334.51,208a28.72,28.72,0,0,0,4.52,9.31,21.31,21.31,0,0,0,7.44,6.27,22.15,22.15,0,0,0,10.21,2.28,23.88,23.88,0,0,0,9.41-2,19.15,19.15,0,0,0,7.92-6.43h.21v7.12Zm-15.21-20.89a17.85,17.85,0,0,1-2.71,5.74,12.75,12.75,0,0,1-4.36,3.77,12.38,12.38,0,0,1-5.9,1.38,11.17,11.17,0,0,1-5.68-1.38,11.58,11.58,0,0,1-4-3.83,17.48,17.48,0,0,1-2.34-5.74,32,32,0,0,1-.74-7.12,31.38,31.38,0,0,1,.74-7.07,18.29,18.29,0,0,1,2.29-5.69,10.89,10.89,0,0,1,4-3.82,11.54,11.54,0,0,1,5.68-1.39,12.66,12.66,0,0,1,5.8,1.33,12.91,12.91,0,0,1,4.41,3.72,17.33,17.33,0,0,1,2.76,5.69,25.39,25.39,0,0,1,1,7.13A26.37,26.37,0,0,1,373.79,203.74Z"/><path class="cls-1" d="M162.55,237.47A61.51,61.51,0,0,0,224.06,299H400a61.49,61.49,0,0,0,61.51-61.5v-176A61.51,61.51,0,0,0,400,0h-176a61.49,61.49,0,0,0-61.51,61.51h15A46.5,46.5,0,0,1,224.06,15H400a46.5,46.5,0,0,1,46.51,46.51v176A46.48,46.48,0,0,1,400,284h-176a46.5,46.5,0,0,1-46.51-46.5Z"/></g></g></svg>